<svg width="21" height="22" viewBox="0 0 21 22" fill="none" xmlns="http://www.w3.org/2000/svg">
<path d="M1.16666 1.66666H8.16666V8.66666H1.16666V1.66666ZM12.8333 1.66666H19.8333V8.66666H12.8333V1.66666ZM1.16666 13.3333H8.16666V20.3333H1.16666V13.3333ZM12.8333 16.8333C12.8333 17.7616 13.2021 18.6518 13.8584 19.3082C14.5148 19.9646 15.4051 20.3333 16.3333 20.3333C17.2616 20.3333 18.1518 19.9646 18.8082 19.3082C19.4646 18.6518 19.8333 17.7616 19.8333 16.8333C19.8333 15.9051 19.4646 15.0148 18.8082 14.3584C18.1518 13.7021 17.2616 13.3333 16.3333 13.3333C15.4051 13.3333 14.5148 13.7021 13.8584 14.3584C13.2021 15.0148 12.8333 15.9051 12.8333 16.8333Z" stroke="#256EEE" stroke-width="2" stroke-linecap="round" stroke-linejoin="round"/>
</svg>
