<svg width="29" height="28" viewBox="0 0 29 28" fill="none" xmlns="http://www.w3.org/2000/svg">
<path d="M23.8333 22.1667V12.25C23.8333 12.0689 23.7912 11.8903 23.7102 11.7283C23.6292 11.5663 23.5116 11.4253 23.3667 11.3167L15.2 5.19168C14.998 5.04022 14.7524 4.95834 14.5 4.95834C14.2476 4.95834 14.0019 5.04022 13.8 5.19168L5.63332 11.3167C5.48843 11.4253 5.37082 11.5663 5.28982 11.7283C5.20883 11.8903 5.16666 12.0689 5.16666 12.25V22.1667C5.16666 22.4761 5.28957 22.7728 5.50837 22.9916C5.72716 23.2104 6.0239 23.3333 6.33332 23.3333H11C11.3094 23.3333 11.6062 23.2104 11.8249 22.9916C12.0437 22.7728 12.1667 22.4761 12.1667 22.1667V18.6667C12.1667 18.3573 12.2896 18.0605 12.5084 17.8417C12.7272 17.6229 13.0239 17.5 13.3333 17.5H15.6667C15.9761 17.5 16.2728 17.6229 16.4916 17.8417C16.7104 18.0605 16.8333 18.3573 16.8333 18.6667V22.1667C16.8333 22.4761 16.9562 22.7728 17.175 22.9916C17.3938 23.2104 17.6906 23.3333 18 23.3333H22.6667C22.9761 23.3333 23.2728 23.2104 23.4916 22.9916C23.7104 22.7728 23.8333 22.4761 23.8333 22.1667Z" stroke="#A9A9A9" stroke-width="2" stroke-linecap="round" stroke-linejoin="round"/>
</svg>
