<svg width="18" height="19" viewBox="0 0 18 19" fill="none" xmlns="http://www.w3.org/2000/svg">
<path d="M18 14.9239V15.8018H0V14.9239L2 13.1682V7.9009C2 5.17948 4.03 2.78287 7 2.01034V1.75576C7 1.2901 7.21071 0.843517 7.58579 0.514249C7.96086 0.184981 8.46957 0 9 0C9.53043 0 10.0391 0.184981 10.4142 0.514249C10.7893 0.843517 11 1.2901 11 1.75576V2.01034C13.97 2.78287 16 5.17948 16 7.9009V13.1682L18 14.9239ZM11 16.6797C11 17.1453 10.7893 17.5919 10.4142 17.9212C10.0391 18.2505 9.53043 18.4354 9 18.4354C8.46957 18.4354 7.96086 18.2505 7.58579 17.9212C7.21071 17.5919 7 17.1453 7 16.6797" fill="#A9A9A9"/>
</svg>
